<?xml version="1.0" encoding="utf-8"?>
<!-- Generator: Adobe Illustrator 24.1.0, SVG Export Plug-In . SVG Version: 6.00 Build 0)  -->
<svg version="1.1" xmlns="http://www.w3.org/2000/svg" xmlns:xlink="http://www.w3.org/1999/xlink" x="0px" y="0px"
	 viewBox="0 0 500 500" style="enable-background:new 0 0 500 500;" xml:space="preserve">
<style type="text/css">
	.st0{fill:#F29B9B;}
	.st1{fill:#E27F7F;}
	.st2{fill:#E66A6A;}
	.st3{fill:#FFFFFF;}
</style>
<g id="Layer_2">
	<polygon class="st0" points="467.04,257.02 359.63,449.45 139.29,452.65 26.34,263.42 133.74,70.99 354.09,67.79 	"/>
	<polygon class="st1" points="404.76,413.77 192.75,473.89 34.68,320.34 88.61,106.67 300.63,46.55 458.7,200.1 	"/>
	<polygon class="st2" points="400.23,102.14 460.36,314.16 306.81,472.23 93.14,418.29 33.02,206.28 186.57,48.21 	"/>
</g>
<g id="Layer_1">
	<g>
		<path class="st3" d="M220.35,375.6h135.66l-3.7,27.13H216.65h-29.6l41.11-291.04h29.6L220.35,375.6z"/>
	</g>
	<g>
		<path class="st3" d="M157.6,297.79h146.84v32.1H157.6V297.79z"/>
	</g>
	<g>
		<path class="st3" d="M157.55,236.04h146.84v32.1H157.55V236.04z"/>
	</g>
	<g>
		<path class="st3" d="M157.5,175.02h146.84v32.1H157.5V175.02z"/>
	</g>
	<g>
	</g>
	<g>
	</g>
	<g>
	</g>
	<g>
	</g>
	<g>
	</g>
	<g>
	</g>
	<g>
	</g>
	<g>
	</g>
	<g>
	</g>
	<g>
	</g>
	<g>
	</g>
	<g>
	</g>
	<g>
	</g>
	<g>
	</g>
	<g>
	</g>
</g>
</svg>
